@startuml ImageColorTables
interface ImageItemCollection<ColorIndexPair> {
    +{abstract} Width
    +{abstract} Height
    +{abstract} Get(x, y)
    +{abstract} Set(x, y, obj)
    +{abstract} Load(x, y, formatReader)
    +{abstract} Save(x, y, formatWriter)
}

class Color4Collection {
    -arr : ColorIndexPair[,]
    +Width
    +Height
    +Get(x, y)
    +Set(x, y, obj)
    +Load(x, y, formatReader)
    +Save(x, y, formatWriter)
}

class Color8Collection {
    -arr : ColorIndexPair[,]
    +Width
    +Height
    +Get(x, y)
    +Set(x, y, obj)
    +Load(x, y, formatReader)
    +Save(x, y, formatWriter)
}

class ColorConstCollection {
    -constant : ColorIndexPair
    +Width
    +Height
    +Get(x, y)
    +Set(x, y, obj)
    +Load(x, y, formatReader)
    +Save(x, y, formatWriter)
}

ImageItemCollection <|-- Color4Collection
ImageItemCollection <|-- Color8Collection
ImageItemCollection <|-- ColorConstCollection
@enduml